<svg xmlns="http://www.w3.org/2000/svg" xmlns:xlink="http://www.w3.org/1999/xlink" width="500" zoomAndPan="magnify" viewBox="0 0 375 374.999991" height="500" preserveAspectRatio="xMidYMid meet" version="1.0"><path fill="#ffffff" d="M 231.382812 188.960938 L 305.421875 114.898438 C 317.53125 102.789062 317.53125 83.121094 305.421875 71.011719 C 293.3125 58.898438 273.667969 58.898438 261.558594 71.011719 L 187.496094 145.074219 L 113.453125 71.011719 C 101.320312 58.898438 81.699219 58.898438 69.566406 71.011719 C 57.457031 83.121094 57.457031 102.765625 69.566406 114.875 L 143.605469 188.9375 L 69.566406 263 C 57.457031 275.109375 57.457031 294.753906 69.566406 306.863281 C 75.632812 312.910156 83.574219 315.953125 91.511719 315.953125 C 99.449219 315.953125 107.386719 312.910156 113.453125 306.863281 L 187.496094 232.800781 L 261.558594 306.863281 C 267.625 312.910156 275.5625 315.953125 283.5 315.953125 C 291.4375 315.953125 299.378906 312.910156 305.421875 306.863281 C 317.53125 294.753906 317.53125 275.109375 305.421875 263 L 231.382812 188.960938 " fill-opacity="1" fill-rule="nonzero"/><path fill="#ffffff" d="M 231.382812 188.960938 L 305.421875 114.898438 C 317.53125 102.789062 317.53125 83.121094 305.421875 71.011719 C 293.3125 58.898438 273.667969 58.898438 261.558594 71.011719 L 187.496094 145.074219 L 113.453125 71.011719 C 101.320312 58.898438 81.699219 58.898438 69.566406 71.011719 C 57.457031 83.121094 57.457031 102.765625 69.566406 114.875 L 143.605469 188.9375 L 69.566406 263 C 57.457031 275.109375 57.457031 294.753906 69.566406 306.863281 C 75.632812 312.910156 83.574219 315.953125 91.511719 315.953125 C 99.449219 315.953125 107.386719 312.910156 113.453125 306.863281 L 187.496094 232.800781 L 261.558594 306.863281 C 267.625 312.910156 275.5625 315.953125 283.5 315.953125 C 291.4375 315.953125 299.378906 312.910156 305.421875 306.863281 C 317.53125 294.753906 317.53125 275.109375 305.421875 263 L 231.382812 188.960938 " fill-opacity="1" fill-rule="nonzero"/></svg>