<svg xmlns="http://www.w3.org/2000/svg" xmlns:xlink="http://www.w3.org/1999/xlink" width="500" zoomAndPan="magnify" viewBox="0 0 375 374.999991" height="500" preserveAspectRatio="xMidYMid meet" version="1.0"><defs><g/></defs><g fill="#ffffff" fill-opacity="1"><g transform="translate(2.497931, 195.783747)"><g><path d="M 24.09375 -11 C 24.09375 -7.457031 22.835938 -4.648438 20.328125 -2.578125 C 17.816406 -0.515625 14.410156 0.515625 10.109375 0.515625 C 6.359375 0.515625 3.335938 -0.25 1.046875 -1.78125 L 1.046875 -8.765625 C 4.328125 -6.929688 7.367188 -6.015625 10.171875 -6.015625 C 12.066406 -6.015625 13.550781 -6.375 14.625 -7.09375 C 15.695312 -7.8125 16.234375 -8.800781 16.234375 -10.0625 C 16.234375 -10.789062 16.117188 -11.429688 15.890625 -11.984375 C 15.660156 -12.535156 15.332031 -13.046875 14.90625 -13.515625 C 14.476562 -13.992188 13.425781 -14.863281 11.75 -16.125 C 9.40625 -17.800781 7.753906 -19.460938 6.796875 -21.109375 C 5.847656 -22.765625 5.375 -24.539062 5.375 -26.4375 C 5.375 -28.632812 5.898438 -30.59375 6.953125 -32.3125 C 8.003906 -34.039062 9.503906 -35.382812 11.453125 -36.34375 C 13.398438 -37.300781 15.632812 -37.78125 18.15625 -37.78125 C 21.84375 -37.78125 25.21875 -36.9375 28.28125 -35.25 L 25.5 -29.328125 C 22.851562 -30.578125 20.40625 -31.203125 18.15625 -31.203125 C 16.75 -31.203125 15.59375 -30.816406 14.6875 -30.046875 C 13.789062 -29.285156 13.34375 -28.28125 13.34375 -27.03125 C 13.34375 -25.988281 13.625 -25.082031 14.1875 -24.3125 C 14.75 -23.539062 16.003906 -22.519531 17.953125 -21.25 C 20.015625 -19.882812 21.550781 -18.382812 22.5625 -16.75 C 23.582031 -15.113281 24.09375 -13.195312 24.09375 -11 Z M 24.09375 -11 "/></g></g></g><g fill="#ffffff" fill-opacity="1"><g transform="translate(30.135418, 195.783747)"><g><path d="M 20.703125 -29.015625 C 23.191406 -29.015625 25.148438 -28.097656 26.578125 -26.265625 C 28.015625 -24.441406 28.734375 -21.894531 28.734375 -18.625 C 28.734375 -15.375 28.148438 -12.25 26.984375 -9.25 C 25.828125 -6.257812 24.238281 -3.882812 22.21875 -2.125 C 20.195312 -0.363281 17.972656 0.515625 15.546875 0.515625 C 14.128906 0.515625 12.910156 0.203125 11.890625 -0.421875 C 10.878906 -1.054688 9.9375 -2.128906 9.0625 -3.640625 L 8.859375 -3.640625 C 8.660156 -0.941406 8.296875 1.5625 7.765625 3.875 L 5.9375 12.53125 L -1.734375 12.53125 L 6.984375 -28.484375 L 12.84375 -28.484375 L 12.40625 -24.15625 L 12.640625 -24.15625 C 14.984375 -27.394531 17.671875 -29.015625 20.703125 -29.015625 Z M 17.625 -22.796875 C 16.46875 -22.796875 15.347656 -22.222656 14.265625 -21.078125 C 13.191406 -19.929688 12.328125 -18.398438 11.671875 -16.484375 C 11.023438 -14.578125 10.703125 -12.472656 10.703125 -10.171875 C 10.703125 -8.804688 11.015625 -7.71875 11.640625 -6.90625 C 12.265625 -6.09375 13.128906 -5.6875 14.234375 -5.6875 C 15.378906 -5.6875 16.46875 -6.269531 17.5 -7.4375 C 18.539062 -8.613281 19.378906 -10.222656 20.015625 -12.265625 C 20.648438 -14.304688 20.96875 -16.320312 20.96875 -18.3125 C 20.96875 -21.300781 19.851562 -22.796875 17.625 -22.796875 Z M 17.625 -22.796875 "/></g></g></g><g fill="#ffffff" fill-opacity="1"><g transform="translate(61.186197, 195.783747)"><g><path d="M 20.5 -17.734375 C 20.5 -21.078125 19.285156 -22.75 16.859375 -22.75 C 15.585938 -22.75 14.445312 -22.226562 13.4375 -21.1875 C 12.425781 -20.15625 11.601562 -18.632812 10.96875 -16.625 C 10.332031 -14.625 10.015625 -12.5625 10.015625 -10.4375 C 10.015625 -7.300781 11.285156 -5.734375 13.828125 -5.734375 C 15.109375 -5.734375 16.253906 -6.253906 17.265625 -7.296875 C 18.285156 -8.335938 19.078125 -9.785156 19.640625 -11.640625 C 20.210938 -13.503906 20.5 -15.535156 20.5 -17.734375 Z M 28.21875 -17.734375 C 28.21875 -14.148438 27.617188 -10.972656 26.421875 -8.203125 C 25.234375 -5.429688 23.507812 -3.285156 21.25 -1.765625 C 18.988281 -0.242188 16.304688 0.515625 13.203125 0.515625 C 9.890625 0.515625 7.242188 -0.484375 5.265625 -2.484375 C 3.285156 -4.484375 2.296875 -7.132812 2.296875 -10.4375 C 2.296875 -14.0625 2.898438 -17.285156 4.109375 -20.109375 C 5.328125 -22.941406 7.082031 -25.132812 9.375 -26.6875 C 11.664062 -28.238281 14.347656 -29.015625 17.421875 -29.015625 C 20.753906 -29.015625 23.382812 -28.007812 25.3125 -26 C 27.25 -24 28.21875 -21.242188 28.21875 -17.734375 Z M 28.21875 -17.734375 "/></g></g></g><g fill="#ffffff" fill-opacity="1"><g transform="translate(91.702052, 195.783747)"><g><path d="M 21.453125 -29.015625 C 22.453125 -29.015625 23.265625 -28.921875 23.890625 -28.734375 L 22.21875 -21.34375 C 21.445312 -21.613281 20.597656 -21.75 19.671875 -21.75 C 17.703125 -21.75 15.972656 -20.972656 14.484375 -19.421875 C 12.992188 -17.867188 11.9375 -15.640625 11.3125 -12.734375 L 8.609375 0 L 0.9375 0 L 6.984375 -28.484375 L 12.84375 -28.484375 L 12.296875 -23.203125 L 12.453125 -23.203125 C 14.953125 -27.078125 17.953125 -29.015625 21.453125 -29.015625 Z M 21.453125 -29.015625 "/></g></g></g><g fill="#ffffff" fill-opacity="1"><g transform="translate(113.659203, 195.783747)"><g><path d="M 13.09375 -5.6875 C 14.195312 -5.6875 15.570312 -5.984375 17.21875 -6.578125 L 17.21875 -0.84375 C 15.332031 0.0625 13.070312 0.515625 10.4375 0.515625 C 7.894531 0.515625 6.023438 -0.0195312 4.828125 -1.09375 C 3.628906 -2.164062 3.03125 -3.820312 3.03125 -6.0625 C 3.03125 -6.914062 3.132812 -7.867188 3.34375 -8.921875 L 6.265625 -22.640625 L 2.390625 -22.640625 L 3.140625 -26.390625 L 8.125 -28.53125 L 11.484375 -34.546875 L 16.4375 -34.546875 L 15.1875 -28.484375 L 22.390625 -28.484375 L 21.125 -22.640625 L 13.9375 -22.640625 L 11 -8.921875 C 10.90625 -8.410156 10.859375 -7.957031 10.859375 -7.5625 C 10.859375 -6.3125 11.601562 -5.6875 13.09375 -5.6875 Z M 13.09375 -5.6875 "/></g></g></g><g fill="#ffffff" fill-opacity="1"><g transform="translate(135.055963, 195.783747)"><g><path d="M 21.125 -9.40625 C 21.125 -6.207031 20.066406 -3.753906 17.953125 -2.046875 C 15.835938 -0.335938 12.894531 0.515625 9.125 0.515625 C 7.300781 0.515625 5.710938 0.382812 4.359375 0.125 C 3.015625 -0.125 1.753906 -0.546875 0.578125 -1.140625 L 0.578125 -7.46875 C 3.242188 -5.9375 5.957031 -5.171875 8.71875 -5.171875 C 10.070312 -5.171875 11.179688 -5.445312 12.046875 -6 C 12.910156 -6.550781 13.34375 -7.300781 13.34375 -8.25 C 13.34375 -8.976562 13.03125 -9.628906 12.40625 -10.203125 C 11.78125 -10.785156 10.664062 -11.519531 9.0625 -12.40625 C 7.007812 -13.5625 5.578125 -14.710938 4.765625 -15.859375 C 3.953125 -17.003906 3.546875 -18.359375 3.546875 -19.921875 C 3.546875 -22.804688 4.484375 -25.039062 6.359375 -26.625 C 8.234375 -28.21875 10.910156 -29.015625 14.390625 -29.015625 C 17.804688 -29.015625 20.890625 -28.207031 23.640625 -26.59375 L 21.125 -21.125 C 18.738281 -22.550781 16.546875 -23.265625 14.546875 -23.265625 C 13.578125 -23.265625 12.796875 -23.046875 12.203125 -22.609375 C 11.609375 -22.171875 11.3125 -21.585938 11.3125 -20.859375 C 11.3125 -20.203125 11.582031 -19.617188 12.125 -19.109375 C 12.664062 -18.609375 13.6875 -17.976562 15.1875 -17.21875 C 17.269531 -16.144531 18.78125 -14.976562 19.71875 -13.71875 C 20.65625 -12.46875 21.125 -11.03125 21.125 -9.40625 Z M 21.125 -9.40625 "/></g></g></g><g fill="#ffffff" fill-opacity="1"><g transform="translate(159.738659, 195.783747)"><g><path d="M -1.140625 12.53125 C -2.910156 12.53125 -4.390625 12.316406 -5.578125 11.890625 L -5.578125 5.734375 C -4.546875 6.085938 -3.570312 6.265625 -2.65625 6.265625 C -1.613281 6.265625 -0.703125 5.925781 0.078125 5.25 C 0.859375 4.570312 1.410156 3.46875 1.734375 1.9375 L 6.921875 -22.640625 L 2.78125 -22.640625 L 3.546875 -26.34375 L 8.203125 -28.484375 L 8.65625 -30.625 C 9.351562 -33.84375 10.53125 -36.195312 12.1875 -37.6875 C 13.84375 -39.175781 16.164062 -39.921875 19.15625 -39.921875 C 21.382812 -39.921875 23.378906 -39.503906 25.140625 -38.671875 L 23.109375 -32.96875 C 21.929688 -33.488281 20.800781 -33.75 19.71875 -33.75 C 18.75 -33.75 17.96875 -33.410156 17.375 -32.734375 C 16.78125 -32.054688 16.378906 -31.164062 16.171875 -30.0625 L 15.875 -28.484375 L 21.453125 -28.484375 L 20.203125 -22.640625 L 14.59375 -22.640625 L 9.125 3.078125 C 7.8125 9.378906 4.390625 12.53125 -1.140625 12.53125 Z M -1.140625 12.53125 "/></g></g></g><g fill="#ffffff" fill-opacity="1"><g transform="translate(179.199522, 195.783747)"><g><path d="M 10.34375 0.515625 C 7.84375 0.515625 5.875 -0.390625 4.4375 -2.203125 C 3.007812 -4.015625 2.296875 -6.550781 2.296875 -9.8125 C 2.296875 -13.175781 2.90625 -16.378906 4.125 -19.421875 C 5.351562 -22.472656 6.957031 -24.832031 8.9375 -26.5 C 10.925781 -28.175781 13.109375 -29.015625 15.484375 -29.015625 C 17.128906 -29.015625 18.550781 -28.65625 19.75 -27.9375 C 20.945312 -27.226562 21.878906 -26.195312 22.546875 -24.84375 L 22.75 -24.84375 L 24.203125 -28.484375 L 30.109375 -28.484375 L 24.046875 0 L 18.21875 0 L 18.578125 -3.6875 L 18.46875 -3.6875 C 16.195312 -0.882812 13.488281 0.515625 10.34375 0.515625 Z M 13.34375 -5.6875 C 14.519531 -5.6875 15.648438 -6.253906 16.734375 -7.390625 C 17.816406 -8.523438 18.691406 -10.0625 19.359375 -12 C 20.023438 -13.945312 20.359375 -16.15625 20.359375 -18.625 C 20.359375 -19.832031 20.03125 -20.828125 19.375 -21.609375 C 18.71875 -22.398438 17.851562 -22.796875 16.78125 -22.796875 C 15.632812 -22.796875 14.535156 -22.179688 13.484375 -20.953125 C 12.441406 -19.734375 11.609375 -18.125 10.984375 -16.125 C 10.367188 -14.125 10.0625 -12.140625 10.0625 -10.171875 C 10.0625 -8.671875 10.34375 -7.546875 10.90625 -6.796875 C 11.476562 -6.054688 12.289062 -5.6875 13.34375 -5.6875 Z M 13.34375 -5.6875 "/></g></g></g><g fill="#ffffff" fill-opacity="1"><g transform="translate(210.199346, 195.783747)"><g><path d="M 12.890625 0.515625 C 9.472656 0.515625 6.851562 -0.394531 5.03125 -2.21875 C 3.207031 -4.050781 2.296875 -6.628906 2.296875 -9.953125 C 2.296875 -13.554688 2.925781 -16.832031 4.1875 -19.78125 C 5.457031 -22.726562 7.238281 -25.003906 9.53125 -26.609375 C 11.820312 -28.210938 14.4375 -29.015625 17.375 -29.015625 C 20.46875 -29.015625 23.253906 -28.40625 25.734375 -27.1875 L 23.390625 -21.34375 C 22.472656 -21.738281 21.570312 -22.078125 20.6875 -22.359375 C 19.800781 -22.648438 18.796875 -22.796875 17.671875 -22.796875 C 16.234375 -22.796875 14.929688 -22.25 13.765625 -21.15625 C 12.609375 -20.070312 11.703125 -18.582031 11.046875 -16.6875 C 10.390625 -14.800781 10.0625 -12.769531 10.0625 -10.59375 C 10.0625 -8.96875 10.445312 -7.742188 11.21875 -6.921875 C 11.988281 -6.097656 13.0625 -5.6875 14.4375 -5.6875 C 15.726562 -5.6875 16.925781 -5.882812 18.03125 -6.28125 C 19.132812 -6.675781 20.273438 -7.171875 21.453125 -7.765625 L 21.453125 -1.5 C 18.867188 -0.15625 16.015625 0.515625 12.890625 0.515625 Z M 12.890625 0.515625 "/></g></g></g><g fill="#ffffff" fill-opacity="1"><g transform="translate(235.391489, 195.783747)"><g><path d="M 8.203125 -35.15625 C 8.203125 -36.632812 8.601562 -37.75 9.40625 -38.5 C 10.21875 -39.257812 11.363281 -39.640625 12.84375 -39.640625 C 14.082031 -39.640625 15.023438 -39.375 15.671875 -38.84375 C 16.316406 -38.320312 16.640625 -37.566406 16.640625 -36.578125 C 16.640625 -35.222656 16.265625 -34.125 15.515625 -33.28125 C 14.765625 -32.4375 13.609375 -32.015625 12.046875 -32.015625 C 9.484375 -32.015625 8.203125 -33.0625 8.203125 -35.15625 Z M 8.609375 0 L 0.9375 0 L 6.984375 -28.484375 L 14.640625 -28.484375 Z M 8.609375 0 "/></g></g></g><g fill="#ffffff" fill-opacity="1"><g transform="translate(250.878667, 195.783747)"><g><path d="M 8.609375 0 L 0.9375 0 L 9.34375 -39.640625 L 17.015625 -39.640625 Z M 8.609375 0 "/></g></g></g><g fill="#ffffff" fill-opacity="1"><g transform="translate(266.365846, 195.783747)"><g><path d="M 8.203125 -35.15625 C 8.203125 -36.632812 8.601562 -37.75 9.40625 -38.5 C 10.21875 -39.257812 11.363281 -39.640625 12.84375 -39.640625 C 14.082031 -39.640625 15.023438 -39.375 15.671875 -38.84375 C 16.316406 -38.320312 16.640625 -37.566406 16.640625 -36.578125 C 16.640625 -35.222656 16.265625 -34.125 15.515625 -33.28125 C 14.765625 -32.4375 13.609375 -32.015625 12.046875 -32.015625 C 9.484375 -32.015625 8.203125 -33.0625 8.203125 -35.15625 Z M 8.609375 0 L 0.9375 0 L 6.984375 -28.484375 L 14.640625 -28.484375 Z M 8.609375 0 "/></g></g></g><g fill="#ffffff" fill-opacity="1"><g transform="translate(281.853025, 195.783747)"><g><path d="M 13.09375 -5.6875 C 14.195312 -5.6875 15.570312 -5.984375 17.21875 -6.578125 L 17.21875 -0.84375 C 15.332031 0.0625 13.070312 0.515625 10.4375 0.515625 C 7.894531 0.515625 6.023438 -0.0195312 4.828125 -1.09375 C 3.628906 -2.164062 3.03125 -3.820312 3.03125 -6.0625 C 3.03125 -6.914062 3.132812 -7.867188 3.34375 -8.921875 L 6.265625 -22.640625 L 2.390625 -22.640625 L 3.140625 -26.390625 L 8.125 -28.53125 L 11.484375 -34.546875 L 16.4375 -34.546875 L 15.1875 -28.484375 L 22.390625 -28.484375 L 21.125 -22.640625 L 13.9375 -22.640625 L 11 -8.921875 C 10.90625 -8.410156 10.859375 -7.957031 10.859375 -7.5625 C 10.859375 -6.3125 11.601562 -5.6875 13.09375 -5.6875 Z M 13.09375 -5.6875 "/></g></g></g><g fill="#ffffff" fill-opacity="1"><g transform="translate(303.249785, 195.783747)"><g><path d="M 8.203125 -35.15625 C 8.203125 -36.632812 8.601562 -37.75 9.40625 -38.5 C 10.21875 -39.257812 11.363281 -39.640625 12.84375 -39.640625 C 14.082031 -39.640625 15.023438 -39.375 15.671875 -38.84375 C 16.316406 -38.320312 16.640625 -37.566406 16.640625 -36.578125 C 16.640625 -35.222656 16.265625 -34.125 15.515625 -33.28125 C 14.765625 -32.4375 13.609375 -32.015625 12.046875 -32.015625 C 9.484375 -32.015625 8.203125 -33.0625 8.203125 -35.15625 Z M 8.609375 0 L 0.9375 0 L 6.984375 -28.484375 L 14.640625 -28.484375 Z M 8.609375 0 "/></g></g></g><g fill="#ffffff" fill-opacity="1"><g transform="translate(318.736963, 195.783747)"><g><path d="M 17.734375 -23.484375 C 16.234375 -23.484375 14.820312 -22.800781 13.5 -21.4375 C 12.175781 -20.082031 11.3125 -18.429688 10.90625 -16.484375 L 12.046875 -16.484375 C 14.679688 -16.484375 16.734375 -16.894531 18.203125 -17.71875 C 19.671875 -18.539062 20.40625 -19.65625 20.40625 -21.0625 C 20.40625 -22.675781 19.515625 -23.484375 17.734375 -23.484375 Z M 13.546875 0.515625 C 9.984375 0.515625 7.21875 -0.441406 5.25 -2.359375 C 3.28125 -4.285156 2.296875 -7 2.296875 -10.5 C 2.296875 -14.007812 2.992188 -17.210938 4.390625 -20.109375 C 5.796875 -23.003906 7.695312 -25.210938 10.09375 -26.734375 C 12.488281 -28.253906 15.195312 -29.015625 18.21875 -29.015625 C 21.21875 -29.015625 23.554688 -28.320312 25.234375 -26.9375 C 26.921875 -25.550781 27.765625 -23.65625 27.765625 -21.25 C 27.765625 -18.070312 26.347656 -15.617188 23.515625 -13.890625 C 20.679688 -12.171875 16.628906 -11.3125 11.359375 -11.3125 L 10.0625 -11.3125 L 10.015625 -10.78125 L 10.015625 -10.265625 C 10.015625 -8.722656 10.453125 -7.503906 11.328125 -6.609375 C 12.203125 -5.710938 13.453125 -5.265625 15.078125 -5.265625 C 16.554688 -5.265625 17.898438 -5.425781 19.109375 -5.75 C 20.316406 -6.070312 21.773438 -6.644531 23.484375 -7.46875 L 23.484375 -1.6875 C 20.566406 -0.21875 17.253906 0.515625 13.546875 0.515625 Z M 13.546875 0.515625 "/></g></g></g><g fill="#ffffff" fill-opacity="1"><g transform="translate(347.800901, 195.783747)"><g><path d="M 21.125 -9.40625 C 21.125 -6.207031 20.066406 -3.753906 17.953125 -2.046875 C 15.835938 -0.335938 12.894531 0.515625 9.125 0.515625 C 7.300781 0.515625 5.710938 0.382812 4.359375 0.125 C 3.015625 -0.125 1.753906 -0.546875 0.578125 -1.140625 L 0.578125 -7.46875 C 3.242188 -5.9375 5.957031 -5.171875 8.71875 -5.171875 C 10.070312 -5.171875 11.179688 -5.445312 12.046875 -6 C 12.910156 -6.550781 13.34375 -7.300781 13.34375 -8.25 C 13.34375 -8.976562 13.03125 -9.628906 12.40625 -10.203125 C 11.78125 -10.785156 10.664062 -11.519531 9.0625 -12.40625 C 7.007812 -13.5625 5.578125 -14.710938 4.765625 -15.859375 C 3.953125 -17.003906 3.546875 -18.359375 3.546875 -19.921875 C 3.546875 -22.804688 4.484375 -25.039062 6.359375 -26.625 C 8.234375 -28.21875 10.910156 -29.015625 14.390625 -29.015625 C 17.804688 -29.015625 20.890625 -28.207031 23.640625 -26.59375 L 21.125 -21.125 C 18.738281 -22.550781 16.546875 -23.265625 14.546875 -23.265625 C 13.578125 -23.265625 12.796875 -23.046875 12.203125 -22.609375 C 11.609375 -22.171875 11.3125 -21.585938 11.3125 -20.859375 C 11.3125 -20.203125 11.582031 -19.617188 12.125 -19.109375 C 12.664062 -18.609375 13.6875 -17.976562 15.1875 -17.21875 C 17.269531 -16.144531 18.78125 -14.976562 19.71875 -13.71875 C 20.65625 -12.46875 21.125 -11.03125 21.125 -9.40625 Z M 21.125 -9.40625 "/></g></g></g><g fill="#ffffff" fill-opacity="1"><g transform="translate(101.859884, 230.569682)"><g><path d="M 6.65625 0.171875 C 5.53125 0.171875 4.644531 -0.238281 4 -1.0625 L 3.859375 -1.0625 C 3.953125 -0.257812 4 0.203125 4 0.328125 L 4 4.234375 L 1.375 4.234375 L 1.375 -9.625 L 3.515625 -9.625 L 3.875 -8.375 L 4 -8.375 C 4.613281 -9.320312 5.523438 -9.796875 6.734375 -9.796875 C 7.867188 -9.796875 8.753906 -9.359375 9.390625 -8.484375 C 10.035156 -7.609375 10.359375 -6.390625 10.359375 -4.828125 C 10.359375 -3.796875 10.207031 -2.898438 9.90625 -2.140625 C 9.601562 -1.390625 9.171875 -0.816406 8.609375 -0.421875 C 8.054688 -0.0234375 7.40625 0.171875 6.65625 0.171875 Z M 5.890625 -7.703125 C 5.234375 -7.703125 4.753906 -7.5 4.453125 -7.09375 C 4.160156 -6.695312 4.007812 -6.039062 4 -5.125 L 4 -4.84375 C 4 -3.8125 4.148438 -3.070312 4.453125 -2.625 C 4.765625 -2.175781 5.253906 -1.953125 5.921875 -1.953125 C 7.097656 -1.953125 7.6875 -2.921875 7.6875 -4.859375 C 7.6875 -5.804688 7.539062 -6.515625 7.25 -6.984375 C 6.957031 -7.460938 6.503906 -7.703125 5.890625 -7.703125 Z M 5.890625 -7.703125 "/></g></g></g><g fill="#ffffff" fill-opacity="1"><g transform="translate(113.012734, 230.569682)"><g><path d="M 5.359375 -7.9375 C 4.804688 -7.9375 4.367188 -7.757812 4.046875 -7.40625 C 3.734375 -7.050781 3.554688 -6.550781 3.515625 -5.90625 L 7.1875 -5.90625 C 7.175781 -6.550781 7.007812 -7.050781 6.6875 -7.40625 C 6.363281 -7.757812 5.921875 -7.9375 5.359375 -7.9375 Z M 5.734375 0.171875 C 4.179688 0.171875 2.96875 -0.253906 2.09375 -1.109375 C 1.226562 -1.960938 0.796875 -3.171875 0.796875 -4.734375 C 0.796875 -6.347656 1.195312 -7.59375 2 -8.46875 C 2.800781 -9.351562 3.914062 -9.796875 5.34375 -9.796875 C 6.707031 -9.796875 7.765625 -9.410156 8.515625 -8.640625 C 9.273438 -7.867188 9.65625 -6.800781 9.65625 -5.4375 L 9.65625 -4.15625 L 3.453125 -4.15625 C 3.484375 -3.40625 3.703125 -2.820312 4.109375 -2.40625 C 4.523438 -1.988281 5.109375 -1.78125 5.859375 -1.78125 C 6.429688 -1.78125 6.972656 -1.835938 7.484375 -1.953125 C 8.003906 -2.078125 8.546875 -2.269531 9.109375 -2.53125 L 9.109375 -0.5 C 8.648438 -0.269531 8.160156 -0.101562 7.640625 0 C 7.117188 0.113281 6.484375 0.171875 5.734375 0.171875 Z M 5.734375 0.171875 "/></g></g></g><g fill="#ffffff" fill-opacity="1"><g transform="translate(123.425503, 230.569682)"><g><path d="M 10.265625 0 L 7.640625 0 L 7.640625 -5.625 C 7.640625 -6.3125 7.515625 -6.828125 7.265625 -7.171875 C 7.015625 -7.523438 6.617188 -7.703125 6.078125 -7.703125 C 5.347656 -7.703125 4.816406 -7.457031 4.484375 -6.96875 C 4.160156 -6.476562 4 -5.664062 4 -4.53125 L 4 0 L 1.375 0 L 1.375 -9.625 L 3.375 -9.625 L 3.734375 -8.390625 L 3.875 -8.390625 C 4.164062 -8.859375 4.566406 -9.207031 5.078125 -9.4375 C 5.597656 -9.675781 6.1875 -9.796875 6.84375 -9.796875 C 7.957031 -9.796875 8.804688 -9.492188 9.390625 -8.890625 C 9.972656 -8.285156 10.265625 -7.414062 10.265625 -6.28125 Z M 10.265625 0 "/></g></g></g><g fill="#ffffff" fill-opacity="1"><g transform="translate(135.008633, 230.569682)"><g><path d="M 8.09375 -2.859375 C 8.09375 -1.867188 7.75 -1.113281 7.0625 -0.59375 C 6.375 -0.0820312 5.347656 0.171875 3.984375 0.171875 C 3.285156 0.171875 2.6875 0.125 2.1875 0.03125 C 1.695312 -0.0625 1.238281 -0.203125 0.8125 -0.390625 L 0.8125 -2.5625 C 1.300781 -2.332031 1.847656 -2.140625 2.453125 -1.984375 C 3.066406 -1.828125 3.609375 -1.75 4.078125 -1.75 C 5.023438 -1.75 5.5 -2.023438 5.5 -2.578125 C 5.5 -2.785156 5.4375 -2.953125 5.3125 -3.078125 C 5.1875 -3.203125 4.96875 -3.347656 4.65625 -3.515625 C 4.34375 -3.679688 3.929688 -3.875 3.421875 -4.09375 C 2.679688 -4.394531 2.132812 -4.675781 1.78125 -4.9375 C 1.4375 -5.207031 1.1875 -5.515625 1.03125 -5.859375 C 0.875 -6.203125 0.796875 -6.617188 0.796875 -7.109375 C 0.796875 -7.972656 1.125 -8.632812 1.78125 -9.09375 C 2.445312 -9.5625 3.390625 -9.796875 4.609375 -9.796875 C 5.765625 -9.796875 6.890625 -9.546875 7.984375 -9.046875 L 7.1875 -7.15625 C 6.707031 -7.363281 6.257812 -7.53125 5.84375 -7.65625 C 5.425781 -7.789062 5 -7.859375 4.5625 -7.859375 C 3.789062 -7.859375 3.40625 -7.648438 3.40625 -7.234375 C 3.40625 -6.992188 3.523438 -6.785156 3.765625 -6.609375 C 4.015625 -6.441406 4.5625 -6.191406 5.40625 -5.859375 C 6.164062 -5.546875 6.71875 -5.257812 7.0625 -5 C 7.414062 -4.738281 7.675781 -4.4375 7.84375 -4.09375 C 8.007812 -3.75 8.09375 -3.335938 8.09375 -2.859375 Z M 8.09375 -2.859375 "/></g></g></g><g fill="#ffffff" fill-opacity="1"><g transform="translate(143.769128, 230.569682)"><g><path d="M 7.484375 0 L 6.984375 -1.3125 L 6.90625 -1.3125 C 6.46875 -0.75 6.015625 -0.359375 5.546875 -0.140625 C 5.078125 0.0664062 4.46875 0.171875 3.71875 0.171875 C 2.789062 0.171875 2.0625 -0.0859375 1.53125 -0.609375 C 1 -1.140625 0.734375 -1.894531 0.734375 -2.875 C 0.734375 -3.894531 1.09375 -4.644531 1.8125 -5.125 C 2.53125 -5.613281 3.609375 -5.882812 5.046875 -5.9375 L 6.71875 -5.984375 L 6.71875 -6.40625 C 6.71875 -7.382812 6.21875 -7.875 5.21875 -7.875 C 4.445312 -7.875 3.539062 -7.640625 2.5 -7.171875 L 1.640625 -8.953125 C 2.742188 -9.523438 3.96875 -9.8125 5.3125 -9.8125 C 6.601562 -9.8125 7.59375 -9.53125 8.28125 -8.96875 C 8.96875 -8.40625 9.3125 -7.550781 9.3125 -6.40625 L 9.3125 0 Z M 6.71875 -4.453125 L 5.703125 -4.421875 C 4.929688 -4.398438 4.359375 -4.257812 3.984375 -4 C 3.617188 -3.75 3.4375 -3.367188 3.4375 -2.859375 C 3.4375 -2.117188 3.859375 -1.75 4.703125 -1.75 C 5.316406 -1.75 5.804688 -1.921875 6.171875 -2.265625 C 6.535156 -2.617188 6.71875 -3.085938 6.71875 -3.671875 Z M 6.71875 -4.453125 "/></g></g></g><g fill="#ffffff" fill-opacity="1"><g transform="translate(154.414248, 230.569682)"><g><path d="M 5.359375 -7.9375 C 4.804688 -7.9375 4.367188 -7.757812 4.046875 -7.40625 C 3.734375 -7.050781 3.554688 -6.550781 3.515625 -5.90625 L 7.1875 -5.90625 C 7.175781 -6.550781 7.007812 -7.050781 6.6875 -7.40625 C 6.363281 -7.757812 5.921875 -7.9375 5.359375 -7.9375 Z M 5.734375 0.171875 C 4.179688 0.171875 2.96875 -0.253906 2.09375 -1.109375 C 1.226562 -1.960938 0.796875 -3.171875 0.796875 -4.734375 C 0.796875 -6.347656 1.195312 -7.59375 2 -8.46875 C 2.800781 -9.351562 3.914062 -9.796875 5.34375 -9.796875 C 6.707031 -9.796875 7.765625 -9.410156 8.515625 -8.640625 C 9.273438 -7.867188 9.65625 -6.800781 9.65625 -5.4375 L 9.65625 -4.15625 L 3.453125 -4.15625 C 3.484375 -3.40625 3.703125 -2.820312 4.109375 -2.40625 C 4.523438 -1.988281 5.109375 -1.78125 5.859375 -1.78125 C 6.429688 -1.78125 6.972656 -1.835938 7.484375 -1.953125 C 8.003906 -2.078125 8.546875 -2.269531 9.109375 -2.53125 L 9.109375 -0.5 C 8.648438 -0.269531 8.160156 -0.101562 7.640625 0 C 7.117188 0.113281 6.484375 0.171875 5.734375 0.171875 Z M 5.734375 0.171875 "/></g></g></g><g fill="#ffffff" fill-opacity="1"><g transform="translate(164.827017, 230.569682)"><g><path d="M 10.265625 0 L 7.640625 0 L 7.640625 -5.625 C 7.640625 -6.3125 7.515625 -6.828125 7.265625 -7.171875 C 7.015625 -7.523438 6.617188 -7.703125 6.078125 -7.703125 C 5.347656 -7.703125 4.816406 -7.457031 4.484375 -6.96875 C 4.160156 -6.476562 4 -5.664062 4 -4.53125 L 4 0 L 1.375 0 L 1.375 -9.625 L 3.375 -9.625 L 3.734375 -8.390625 L 3.875 -8.390625 C 4.164062 -8.859375 4.566406 -9.207031 5.078125 -9.4375 C 5.597656 -9.675781 6.1875 -9.796875 6.84375 -9.796875 C 7.957031 -9.796875 8.804688 -9.492188 9.390625 -8.890625 C 9.972656 -8.285156 10.265625 -7.414062 10.265625 -6.28125 Z M 10.265625 0 "/></g></g></g><g fill="#ffffff" fill-opacity="1"><g transform="translate(176.410147, 230.569682)"><g><path d="M 5.28125 0.171875 C 2.289062 0.171875 0.796875 -1.472656 0.796875 -4.765625 C 0.796875 -6.398438 1.203125 -7.644531 2.015625 -8.5 C 2.828125 -9.363281 3.992188 -9.796875 5.515625 -9.796875 C 6.628906 -9.796875 7.628906 -9.578125 8.515625 -9.140625 L 7.734375 -7.109375 C 7.316406 -7.273438 6.929688 -7.410156 6.578125 -7.515625 C 6.222656 -7.628906 5.867188 -7.6875 5.515625 -7.6875 C 4.148438 -7.6875 3.46875 -6.71875 3.46875 -4.78125 C 3.46875 -2.894531 4.148438 -1.953125 5.515625 -1.953125 C 6.023438 -1.953125 6.492188 -2.019531 6.921875 -2.15625 C 7.347656 -2.289062 7.773438 -2.5 8.203125 -2.78125 L 8.203125 -0.546875 C 7.785156 -0.273438 7.359375 -0.0859375 6.921875 0.015625 C 6.492188 0.117188 5.945312 0.171875 5.28125 0.171875 Z M 5.28125 0.171875 "/></g></g></g><g fill="#ffffff" fill-opacity="1"><g transform="translate(185.471837, 230.569682)"><g><path d="M 3.46875 -4.828125 C 3.46875 -3.878906 3.625 -3.160156 3.9375 -2.671875 C 4.25 -2.179688 4.757812 -1.9375 5.46875 -1.9375 C 6.164062 -1.9375 6.664062 -2.175781 6.96875 -2.65625 C 7.28125 -3.144531 7.4375 -3.867188 7.4375 -4.828125 C 7.4375 -5.773438 7.28125 -6.488281 6.96875 -6.96875 C 6.65625 -7.445312 6.148438 -7.6875 5.453125 -7.6875 C 4.742188 -7.6875 4.234375 -7.445312 3.921875 -6.96875 C 3.617188 -6.5 3.46875 -5.785156 3.46875 -4.828125 Z M 10.125 -4.828125 C 10.125 -3.265625 9.707031 -2.039062 8.875 -1.15625 C 8.050781 -0.269531 6.90625 0.171875 5.4375 0.171875 C 4.507812 0.171875 3.691406 -0.03125 2.984375 -0.4375 C 2.273438 -0.84375 1.734375 -1.421875 1.359375 -2.171875 C 0.984375 -2.929688 0.796875 -3.816406 0.796875 -4.828125 C 0.796875 -6.398438 1.203125 -7.617188 2.015625 -8.484375 C 2.835938 -9.359375 3.992188 -9.796875 5.484375 -9.796875 C 6.410156 -9.796875 7.222656 -9.59375 7.921875 -9.1875 C 8.628906 -8.789062 9.171875 -8.21875 9.546875 -7.46875 C 9.929688 -6.71875 10.125 -5.835938 10.125 -4.828125 Z M 10.125 -4.828125 "/></g></g></g><g fill="#ffffff" fill-opacity="1"><g transform="translate(196.383731, 230.569682)"><g><path d="M 6.75 -9.796875 C 7.101562 -9.796875 7.398438 -9.769531 7.640625 -9.71875 L 7.4375 -7.265625 C 7.21875 -7.316406 6.957031 -7.34375 6.65625 -7.34375 C 5.820312 -7.34375 5.171875 -7.128906 4.703125 -6.703125 C 4.234375 -6.273438 4 -5.671875 4 -4.890625 L 4 0 L 1.375 0 L 1.375 -9.625 L 3.359375 -9.625 L 3.75 -8 L 3.875 -8 C 4.175781 -8.539062 4.582031 -8.972656 5.09375 -9.296875 C 5.601562 -9.628906 6.15625 -9.796875 6.75 -9.796875 Z M 6.75 -9.796875 "/></g></g></g><g fill="#ffffff" fill-opacity="1"><g transform="translate(204.386934, 230.569682)"><g><path d="M 6.75 -9.796875 C 7.101562 -9.796875 7.398438 -9.769531 7.640625 -9.71875 L 7.4375 -7.265625 C 7.21875 -7.316406 6.957031 -7.34375 6.65625 -7.34375 C 5.820312 -7.34375 5.171875 -7.128906 4.703125 -6.703125 C 4.234375 -6.273438 4 -5.671875 4 -4.890625 L 4 0 L 1.375 0 L 1.375 -9.625 L 3.359375 -9.625 L 3.75 -8 L 3.875 -8 C 4.175781 -8.539062 4.582031 -8.972656 5.09375 -9.296875 C 5.601562 -9.628906 6.15625 -9.796875 6.75 -9.796875 Z M 6.75 -9.796875 "/></g></g></g><g fill="#ffffff" fill-opacity="1"><g transform="translate(212.390136, 230.569682)"><g><path d="M 5.359375 -7.9375 C 4.804688 -7.9375 4.367188 -7.757812 4.046875 -7.40625 C 3.734375 -7.050781 3.554688 -6.550781 3.515625 -5.90625 L 7.1875 -5.90625 C 7.175781 -6.550781 7.007812 -7.050781 6.6875 -7.40625 C 6.363281 -7.757812 5.921875 -7.9375 5.359375 -7.9375 Z M 5.734375 0.171875 C 4.179688 0.171875 2.96875 -0.253906 2.09375 -1.109375 C 1.226562 -1.960938 0.796875 -3.171875 0.796875 -4.734375 C 0.796875 -6.347656 1.195312 -7.59375 2 -8.46875 C 2.800781 -9.351562 3.914062 -9.796875 5.34375 -9.796875 C 6.707031 -9.796875 7.765625 -9.410156 8.515625 -8.640625 C 9.273438 -7.867188 9.65625 -6.800781 9.65625 -5.4375 L 9.65625 -4.15625 L 3.453125 -4.15625 C 3.484375 -3.40625 3.703125 -2.820312 4.109375 -2.40625 C 4.523438 -1.988281 5.109375 -1.78125 5.859375 -1.78125 C 6.429688 -1.78125 6.972656 -1.835938 7.484375 -1.953125 C 8.003906 -2.078125 8.546875 -2.269531 9.109375 -2.53125 L 9.109375 -0.5 C 8.648438 -0.269531 8.160156 -0.101562 7.640625 0 C 7.117188 0.113281 6.484375 0.171875 5.734375 0.171875 Z M 5.734375 0.171875 "/></g></g></g><g fill="#ffffff" fill-opacity="1"><g transform="translate(222.802905, 230.569682)"><g><path d="M 6.75 -9.796875 C 7.101562 -9.796875 7.398438 -9.769531 7.640625 -9.71875 L 7.4375 -7.265625 C 7.21875 -7.316406 6.957031 -7.34375 6.65625 -7.34375 C 5.820312 -7.34375 5.171875 -7.128906 4.703125 -6.703125 C 4.234375 -6.273438 4 -5.671875 4 -4.890625 L 4 0 L 1.375 0 L 1.375 -9.625 L 3.359375 -9.625 L 3.75 -8 L 3.875 -8 C 4.175781 -8.539062 4.582031 -8.972656 5.09375 -9.296875 C 5.601562 -9.628906 6.15625 -9.796875 6.75 -9.796875 Z M 6.75 -9.796875 "/></g></g></g><g fill="#ffffff" fill-opacity="1"><g transform="translate(230.806108, 230.569682)"><g><path d="M 1 -1.234375 C 1 -1.710938 1.128906 -2.070312 1.390625 -2.3125 C 1.648438 -2.5625 2.023438 -2.6875 2.515625 -2.6875 C 2.992188 -2.6875 3.363281 -2.5625 3.625 -2.3125 C 3.882812 -2.0625 4.015625 -1.703125 4.015625 -1.234375 C 4.015625 -0.773438 3.882812 -0.414062 3.625 -0.15625 C 3.363281 0.101562 2.992188 0.234375 2.515625 0.234375 C 2.035156 0.234375 1.660156 0.109375 1.390625 -0.140625 C 1.128906 -0.398438 1 -0.765625 1 -1.234375 Z M 1 -1.234375 "/></g></g></g><g fill="#ffffff" fill-opacity="1"><g transform="translate(235.831775, 230.569682)"><g><path d="M 5.28125 0.171875 C 2.289062 0.171875 0.796875 -1.472656 0.796875 -4.765625 C 0.796875 -6.398438 1.203125 -7.644531 2.015625 -8.5 C 2.828125 -9.363281 3.992188 -9.796875 5.515625 -9.796875 C 6.628906 -9.796875 7.628906 -9.578125 8.515625 -9.140625 L 7.734375 -7.109375 C 7.316406 -7.273438 6.929688 -7.410156 6.578125 -7.515625 C 6.222656 -7.628906 5.867188 -7.6875 5.515625 -7.6875 C 4.148438 -7.6875 3.46875 -6.71875 3.46875 -4.78125 C 3.46875 -2.894531 4.148438 -1.953125 5.515625 -1.953125 C 6.023438 -1.953125 6.492188 -2.019531 6.921875 -2.15625 C 7.347656 -2.289062 7.773438 -2.5 8.203125 -2.78125 L 8.203125 -0.546875 C 7.785156 -0.273438 7.359375 -0.0859375 6.921875 0.015625 C 6.492188 0.117188 5.945312 0.171875 5.28125 0.171875 Z M 5.28125 0.171875 "/></g></g></g><g fill="#ffffff" fill-opacity="1"><g transform="translate(244.893466, 230.569682)"><g><path d="M 3.46875 -4.828125 C 3.46875 -3.878906 3.625 -3.160156 3.9375 -2.671875 C 4.25 -2.179688 4.757812 -1.9375 5.46875 -1.9375 C 6.164062 -1.9375 6.664062 -2.175781 6.96875 -2.65625 C 7.28125 -3.144531 7.4375 -3.867188 7.4375 -4.828125 C 7.4375 -5.773438 7.28125 -6.488281 6.96875 -6.96875 C 6.65625 -7.445312 6.148438 -7.6875 5.453125 -7.6875 C 4.742188 -7.6875 4.234375 -7.445312 3.921875 -6.96875 C 3.617188 -6.5 3.46875 -5.785156 3.46875 -4.828125 Z M 10.125 -4.828125 C 10.125 -3.265625 9.707031 -2.039062 8.875 -1.15625 C 8.050781 -0.269531 6.90625 0.171875 5.4375 0.171875 C 4.507812 0.171875 3.691406 -0.03125 2.984375 -0.4375 C 2.273438 -0.84375 1.734375 -1.421875 1.359375 -2.171875 C 0.984375 -2.929688 0.796875 -3.816406 0.796875 -4.828125 C 0.796875 -6.398438 1.203125 -7.617188 2.015625 -8.484375 C 2.835938 -9.359375 3.992188 -9.796875 5.484375 -9.796875 C 6.410156 -9.796875 7.222656 -9.59375 7.921875 -9.1875 C 8.628906 -8.789062 9.171875 -8.21875 9.546875 -7.46875 C 9.929688 -6.71875 10.125 -5.835938 10.125 -4.828125 Z M 10.125 -4.828125 "/></g></g></g><g fill="#ffffff" fill-opacity="1"><g transform="translate(255.805359, 230.569682)"><g><path d="M 9.984375 0 L 7.359375 0 L 7.359375 -5.625 C 7.359375 -6.3125 7.242188 -6.828125 7.015625 -7.171875 C 6.785156 -7.523438 6.421875 -7.703125 5.921875 -7.703125 C 5.242188 -7.703125 4.753906 -7.453125 4.453125 -6.953125 C 4.148438 -6.460938 4 -5.65625 4 -4.53125 L 4 0 L 1.375 0 L 1.375 -9.625 L 3.375 -9.625 L 3.734375 -8.390625 L 3.875 -8.390625 C 4.132812 -8.828125 4.507812 -9.171875 5 -9.421875 C 5.488281 -9.671875 6.046875 -9.796875 6.671875 -9.796875 C 8.117188 -9.796875 9.097656 -9.328125 9.609375 -8.390625 L 9.84375 -8.390625 C 10.09375 -8.835938 10.46875 -9.179688 10.96875 -9.421875 C 11.476562 -9.671875 12.046875 -9.796875 12.671875 -9.796875 C 13.765625 -9.796875 14.585938 -9.515625 15.140625 -8.953125 C 15.703125 -8.398438 15.984375 -7.507812 15.984375 -6.28125 L 15.984375 0 L 13.359375 0 L 13.359375 -5.625 C 13.359375 -6.3125 13.238281 -6.828125 13 -7.171875 C 12.769531 -7.523438 12.40625 -7.703125 11.90625 -7.703125 C 11.269531 -7.703125 10.789062 -7.472656 10.46875 -7.015625 C 10.144531 -6.554688 9.984375 -5.828125 9.984375 -4.828125 Z M 9.984375 0 "/></g></g></g></svg>