<svg xmlns="http://www.w3.org/2000/svg" xmlns:xlink="http://www.w3.org/1999/xlink" width="500" zoomAndPan="magnify" viewBox="0 0 375 374.999991" height="500" preserveAspectRatio="xMidYMid meet" version="1.0"><defs><clipPath id="fb6e54a9f2"><path d="M 37.5 159 L 337.5 159 L 337.5 216 L 37.5 216 Z M 37.5 159 " clip-rule="nonzero"/></clipPath><clipPath id="65c53645c8"><path d="M 37.5 65.75 L 337.5 65.75 L 337.5 123 L 37.5 123 Z M 37.5 65.75 " clip-rule="nonzero"/></clipPath><clipPath id="1353e59c60"><path d="M 37.535156 252.707031 L 337.464844 252.707031 L 337.464844 309.226562 L 37.535156 309.226562 Z M 37.535156 252.707031 " clip-rule="nonzero"/></clipPath></defs><g clip-path="url(#fb6e54a9f2)"><path fill="#ffffff" d="M 309.214844 215.738281 L 65.785156 215.738281 C 50.195312 215.738281 37.535156 203.089844 37.535156 187.488281 C 37.535156 171.878906 50.195312 159.238281 65.785156 159.238281 L 309.214844 159.238281 C 324.816406 159.238281 337.464844 171.878906 337.464844 187.488281 C 337.464844 203.089844 324.816406 215.738281 309.214844 215.738281 " fill-opacity="1" fill-rule="nonzero"/></g><g clip-path="url(#65c53645c8)"><path fill="#ffffff" d="M 309.214844 122.253906 L 65.785156 122.253906 C 50.195312 122.253906 37.535156 109.601562 37.535156 94 C 37.535156 78.390625 50.195312 65.746094 65.785156 65.746094 L 309.214844 65.746094 C 324.816406 65.746094 337.464844 78.390625 337.464844 94 C 337.464844 109.601562 324.816406 122.253906 309.214844 122.253906 " fill-opacity="1" fill-rule="nonzero"/></g><g clip-path="url(#1353e59c60)"><path fill="#ffffff" d="M 309.214844 309.226562 L 65.785156 309.226562 C 50.195312 309.226562 37.535156 296.578125 37.535156 280.976562 C 37.535156 265.367188 50.195312 252.726562 65.785156 252.726562 L 309.214844 252.726562 C 324.816406 252.726562 337.464844 265.367188 337.464844 280.976562 C 337.464844 296.578125 324.816406 309.226562 309.214844 309.226562 " fill-opacity="1" fill-rule="nonzero"/></g></svg>